<?xml version="1.0" encoding="UTF-8" standalone="no"?><!-- Generator: Gravit.io --><svg xmlns="http://www.w3.org/2000/svg" xmlns:xlink="http://www.w3.org/1999/xlink" style="isolation:isolate" viewBox="0 0 256 256" width="256pt" height="256pt"><defs><clipPath id="_clipPath_ZZ9GWqrUKi5PqSTVjtc6T7cMwaKkfgm2"><rect width="256" height="256"/></clipPath></defs><g clip-path="url(#_clipPath_ZZ9GWqrUKi5PqSTVjtc6T7cMwaKkfgm2)"><g><path d=" M 97.221 191.214 C 94.281 189.965 92.444 187.098 92.444 183.791 C 92.444 181.88 93.105 180.484 95.016 178.353 L 97.588 175.56 L 97.588 113.898 L 97.515 52.237 L 95.31 54.809 C 90.386 60.542 87.299 69.802 87.299 79.062 C 87.299 85.897 88.402 90.895 91.415 97.215 C 93.399 101.331 93.914 103.389 93.914 106.77 L 93.84 111.032 L 91.635 108.46 C 88.328 104.638 83.625 94.937 82.449 89.425 C 77.966 68.185 88.181 46.799 107.216 37.685 C 115.08 33.864 120.078 32.688 128.088 32.688 C 136.099 32.688 141.097 33.864 148.887 37.612 C 164.1 44.961 173.655 59.366 174.536 76.49 C 175.124 88.543 171.523 100.229 164.835 108.092 L 162.336 111.032 L 162.263 106.696 C 162.263 103.315 162.777 101.405 164.468 97.877 C 169.392 87.955 170.274 77.005 167.04 66.789 C 165.276 61.203 160.72 53.34 159.323 53.34 C 158.809 53.34 158.588 75.388 158.588 114.633 L 158.588 175.927 L 160.499 177.177 C 162.924 178.72 164.541 182.689 164.027 185.555 C 163.806 186.731 162.63 188.642 161.381 189.818 C 157.265 193.713 150.357 192.022 148.226 186.51 C 147.27 184.012 148.667 179.381 150.871 177.691 L 152.709 176.221 L 152.709 111.253 L 152.709 46.358 L 149.402 44.3 C 147.564 43.197 145.874 42.315 145.727 42.315 C 145.506 42.315 145.359 65.319 145.359 93.467 L 145.359 144.545 L 147.932 146.971 C 150.136 149.102 150.504 149.91 150.504 152.85 C 150.504 155.716 150.136 156.745 148.373 158.509 C 146.609 160.2 145.58 160.641 143.008 160.641 C 139.186 160.641 136.761 159.097 135.364 155.79 C 134.041 152.63 134.703 149.469 137.349 146.971 L 139.48 144.913 L 139.48 92.585 C 139.48 59.293 139.186 40.037 138.745 39.743 C 138.377 39.523 136.393 39.082 134.335 38.861 L 130.661 38.42 L 130.661 80.312 L 130.661 122.13 L 132.792 123.747 C 135.732 125.951 136.834 129.479 135.658 133.08 C 133.306 140.062 122.429 140.136 120.445 133.08 C 119.49 129.553 120.665 125.731 123.311 123.747 L 125.516 122.13 L 125.516 80.312 L 125.516 38.42 L 121.841 38.861 C 119.784 39.082 117.799 39.523 117.432 39.743 C 116.991 40.037 116.697 59.293 116.697 92.659 C 116.697 145.06 116.697 145.133 118.24 145.574 C 120.004 146.162 122.576 150.057 122.576 152.262 C 122.576 157.407 119.269 160.641 113.978 160.641 C 109.641 160.641 107.069 158.142 106.555 153.438 C 106.261 149.984 106.408 149.469 108.539 147.412 L 110.817 145.06 L 110.817 93.688 C 110.817 65.466 110.67 42.315 110.45 42.315 C 110.303 42.315 108.612 43.197 106.775 44.3 L 103.468 46.358 L 103.468 111.253 C 103.468 167.843 103.615 176.148 104.57 176.515 C 106.261 177.177 108.612 181.513 108.612 184.085 C 108.612 186.951 106.849 189.744 104.129 191.214 C 101.631 192.463 100.087 192.463 97.221 191.214 Z " fill="rgb(63,81,181)"/><path d=" M 162.203 140.283 C 162.203 136.902 162.35 136.682 165.437 134.697 C 174.33 129.112 183.663 118.161 188.661 107.431 C 196.01 91.924 197.039 75.461 191.821 58.925 C 189.396 51.282 187.265 46.946 182.12 39.817 C 168.744 21.076 144.05 10.052 121.047 12.771 C 88.489 16.593 64.897 40.625 61.443 73.256 C 59.312 93.614 67.47 114.633 82.977 128.671 C 85.476 130.949 89.003 133.668 90.694 134.771 C 93.633 136.608 93.854 136.976 93.854 139.915 C 93.854 141.606 93.56 143.002 93.193 143.002 C 92.825 143.002 90.032 141.385 87.093 139.327 C 80.478 134.991 71.512 125.731 66.955 118.676 C 52.697 96.701 51.522 68.479 63.795 45.402 C 68.793 36.068 72.394 31.438 80.111 24.677 C 121.047 -11.115 184.766 8.802 198.656 61.791 C 200.273 68.038 200.641 70.684 200.641 79.43 C 200.641 88.249 200.347 90.748 198.73 96.995 C 193.732 115.736 182.267 131.096 165.363 141.826 L 162.203 143.737 L 162.203 140.283 Z " fill="rgb(126,213,90)"/><path d=" M 162.296 124.849 C 162.296 121.542 162.517 121.027 166.044 117.647 C 182.066 102.066 186.623 77.005 177.068 56.647 C 171.63 45.108 163.472 36.73 152.375 31.218 C 122.022 16.225 86.598 31.512 76.308 63.996 C 73.883 71.86 73.516 82.811 75.5 91.042 C 77.999 101.405 83.217 110.812 90.566 118.014 C 93.579 120.88 93.947 121.615 93.947 124.408 C 93.947 126.172 93.653 127.568 93.286 127.568 C 92.036 127.568 82.776 118.382 79.689 114.045 C 59.184 85.162 67.489 46.137 97.916 27.69 C 121.948 13.212 155.167 18.797 173.467 40.478 C 179.053 47.019 182.213 52.678 185.153 61.424 C 187.431 67.965 187.578 69.067 187.578 78.327 C 187.578 90.527 186.402 95.819 181.405 105.888 C 177.656 113.457 172.291 120.219 165.677 125.657 L 162.296 128.377 L 162.296 124.849 Z " fill="rgb(63,81,181)"/><path d=" M 111.719 233.135 L 111.719 233.135 L 111.719 233.135 Q 112.397 234.762 112.397 235.485 L 112.397 235.485 L 112.397 235.485 Q 112.397 237.202 109.595 238.377 L 109.595 238.377 L 109.595 238.377 Q 108.149 239.01 107.268 239.01 L 107.268 239.01 L 107.268 239.01 Q 106.387 239.01 105.822 238.581 L 105.822 238.581 L 105.822 238.581 Q 105.257 238.151 104.986 237.699 L 104.986 237.699 L 104.986 237.699 Q 104.534 236.841 101.46 229.519 L 101.46 229.519 L 100.059 229.61 L 94.365 229.61 L 94.365 234.717 L 94.365 234.717 Q 94.365 235.756 94.297 236.276 L 94.297 236.276 L 94.297 236.276 Q 94.229 236.796 93.868 237.474 L 93.868 237.474 L 93.868 237.474 Q 93.235 238.694 90.343 238.694 L 90.343 238.694 L 90.343 238.694 Q 87.179 238.694 86.637 237.022 L 86.637 237.022 L 86.637 237.022 Q 86.366 236.253 86.366 234.671 L 86.366 234.671 L 86.366 209.589 L 86.366 209.589 Q 86.366 208.549 86.433 208.029 L 86.433 208.029 L 86.433 208.029 Q 86.501 207.51 86.863 206.832 L 86.863 206.832 L 86.863 206.832 Q 87.495 205.612 90.388 205.612 L 90.388 205.612 L 100.15 205.612 L 100.15 205.612 Q 104.127 205.612 107.878 208.504 L 107.878 208.504 L 107.878 208.504 Q 109.686 209.905 110.861 212.3 L 110.861 212.3 L 110.861 212.3 Q 112.036 214.696 112.036 217.633 L 112.036 217.633 L 112.036 217.633 Q 112.036 222.74 108.646 226.039 L 108.646 226.039 L 108.646 226.039 Q 109.641 228.435 111.719 233.135 Z  M 94.365 213.611 L 94.365 221.61 L 100.15 221.61 L 100.15 221.61 Q 101.46 221.61 102.771 220.616 L 102.771 220.616 L 102.771 220.616 Q 104.082 219.622 104.082 217.633 L 104.082 217.633 L 104.082 217.633 Q 104.082 215.645 102.771 214.628 L 102.771 214.628 L 102.771 214.628 Q 101.46 213.611 100.059 213.611 L 100.059 213.611 L 94.365 213.611 L 94.365 213.611 Z  M 134 207.962 L 134 207.962 L 146.203 233.18 L 146.203 233.18 Q 146.971 234.717 146.971 235.485 L 146.971 235.485 L 146.971 235.485 Q 146.971 237.112 144.35 238.423 L 144.35 238.423 L 144.35 238.423 Q 142.813 239.191 141.932 239.191 L 141.932 239.191 L 141.932 239.191 Q 141.05 239.191 140.486 238.784 L 140.486 238.784 L 140.486 238.784 Q 139.921 238.377 139.672 237.925 L 139.672 237.925 L 139.672 237.925 Q 139.423 237.474 138.972 236.57 L 138.972 236.57 L 136.621 231.689 L 124.103 231.689 L 121.753 236.57 L 121.753 236.57 Q 121.301 237.474 121.052 237.88 L 121.052 237.88 L 121.052 237.88 Q 120.803 238.287 120.239 238.716 L 120.239 238.716 L 120.239 238.716 Q 119.674 239.146 118.792 239.146 L 118.792 239.146 L 118.792 239.146 Q 117.911 239.146 116.374 238.377 L 116.374 238.377 L 116.374 238.377 Q 113.753 237.112 113.753 235.485 L 113.753 235.485 L 113.753 235.485 Q 113.753 234.717 114.522 233.18 L 114.522 233.18 L 126.724 207.917 L 126.724 207.917 Q 127.221 206.877 128.238 206.244 L 128.238 206.244 L 128.238 206.244 Q 129.255 205.612 130.385 205.612 L 130.385 205.612 L 130.385 205.612 Q 132.825 205.612 134 207.962 Z  M 133.367 225 L 130.339 218.808 L 127.357 225 L 133.367 225 L 133.367 225 Z  M 143.175 205.566 L 143.175 205.566 L 168.303 205.566 L 168.303 205.566 Q 169.749 205.566 170.427 205.905 L 170.427 205.905 L 170.427 205.905 Q 171.105 206.244 171.331 206.967 L 171.331 206.967 L 171.331 206.967 Q 171.557 207.691 171.557 208.866 L 171.557 208.866 L 171.557 208.866 Q 171.557 210.041 171.331 210.741 L 171.331 210.741 L 171.331 210.741 Q 171.105 211.442 170.562 211.713 L 170.562 211.713 L 170.562 211.713 Q 169.749 212.12 168.257 212.12 L 168.257 212.12 L 159.625 212.12 L 159.625 234.852 L 159.625 234.852 Q 159.625 235.892 159.557 236.389 L 159.557 236.389 L 159.557 236.389 Q 159.49 236.886 159.151 237.541 L 159.151 237.541 L 159.151 237.541 Q 158.812 238.197 157.953 238.468 L 157.953 238.468 L 157.953 238.468 Q 157.094 238.739 155.693 238.739 L 155.693 238.739 L 155.693 238.739 Q 154.292 238.739 153.456 238.468 L 153.456 238.468 L 153.456 238.468 Q 152.62 238.197 152.281 237.541 L 152.281 237.541 L 152.281 237.541 Q 151.942 236.886 151.874 236.366 L 151.874 236.366 L 151.874 236.366 Q 151.807 235.847 151.807 234.807 L 151.807 234.807 L 151.807 212.12 L 143.129 212.12 L 143.129 212.12 Q 141.683 212.12 141.005 211.781 L 141.005 211.781 L 141.005 211.781 Q 140.327 211.442 140.101 210.719 L 140.101 210.719 L 140.101 210.719 Q 139.875 209.995 139.875 208.82 L 139.875 208.82 L 139.875 208.82 Q 139.875 207.645 140.101 206.945 L 140.101 206.945 L 140.101 206.945 Q 140.327 206.244 140.87 205.973 L 140.87 205.973 L 140.87 205.973 Q 141.683 205.566 143.175 205.566 Z  M 174.042 234.717 L 174.042 209.589 L 174.042 209.589 Q 174.042 208.549 174.11 208.029 L 174.11 208.029 L 174.11 208.029 Q 174.178 207.51 174.539 206.832 L 174.539 206.832 L 174.539 206.832 Q 175.172 205.612 178.065 205.612 L 178.065 205.612 L 178.065 205.612 Q 181.228 205.612 181.816 207.284 L 181.816 207.284 L 181.816 207.284 Q 182.042 208.052 182.042 209.634 L 182.042 209.634 L 182.042 234.762 L 182.042 234.762 Q 182.042 235.847 181.974 236.344 L 181.974 236.344 L 181.974 236.344 Q 181.906 236.841 181.544 237.519 L 181.544 237.519 L 181.544 237.519 Q 180.912 238.739 178.019 238.739 L 178.019 238.739 L 178.019 238.739 Q 174.856 238.739 174.313 237.022 L 174.313 237.022 L 174.313 237.022 Q 174.042 236.298 174.042 234.717 L 174.042 234.717 L 174.042 234.717 Z  M 201.204 205.205 L 201.204 205.205 L 201.204 205.205 Q 207.893 205.205 212.819 210.041 L 212.819 210.041 L 212.819 210.041 Q 217.745 214.876 217.745 222.04 L 217.745 222.04 L 217.745 222.04 Q 217.745 229.203 213.045 234.242 L 213.045 234.242 L 213.045 234.242 Q 208.345 239.281 201.475 239.281 L 201.475 239.281 L 201.475 239.281 Q 194.606 239.281 189.792 234.31 L 189.792 234.31 L 189.792 234.31 Q 184.979 229.339 184.979 222.469 L 184.979 222.469 L 184.979 222.469 Q 184.979 218.718 186.335 215.441 L 186.335 215.441 L 186.335 215.441 Q 187.691 212.165 189.951 209.95 L 189.951 209.95 L 189.951 209.95 Q 192.21 207.736 195.148 206.47 L 195.148 206.47 L 195.148 206.47 Q 198.086 205.205 201.204 205.205 Z  M 192.979 222.243 L 192.979 222.243 L 192.979 222.243 Q 192.979 226.265 195.577 228.774 L 195.577 228.774 L 195.577 228.774 Q 198.176 231.282 201.385 231.282 L 201.385 231.282 L 201.385 231.282 Q 204.593 231.282 207.17 228.841 L 207.17 228.841 L 207.17 228.841 Q 209.746 226.401 209.746 222.288 L 209.746 222.288 L 209.746 222.288 Q 209.746 218.176 207.147 215.69 L 207.147 215.69 L 207.147 215.69 Q 204.548 213.204 201.34 213.204 L 201.34 213.204 L 201.34 213.204 Q 198.131 213.204 195.555 215.713 L 195.555 215.713 L 195.555 215.713 Q 192.979 218.221 192.979 222.243 Z " fill="rgb(63,81,181)"/><path d=" M 70.638 206.877 L 70.638 206.877 L 70.638 206.877 Q 71 207.555 71.067 208.097 L 71.067 208.097 L 71.067 208.097 Q 71.135 208.64 71.135 209.679 L 71.135 209.679 L 71.135 234.762 L 71.135 234.762 Q 71.135 237.88 69.418 238.423 L 69.418 238.423 L 69.418 238.423 Q 68.559 238.694 67.248 238.694 L 67.248 238.694 L 67.248 238.694 Q 65.938 238.694 65.169 238.468 L 65.169 238.468 L 65.169 238.468 Q 64.401 238.242 63.994 237.925 L 63.994 237.925 L 63.994 237.925 Q 63.588 237.609 63.362 237.022 L 63.362 237.022 L 63.362 237.022 Q 63.136 236.253 63.136 234.671 L 63.136 234.671 L 63.136 219.531 L 63.136 219.531 Q 62.006 220.932 59.837 223.983 L 59.837 223.983 L 59.837 223.983 Q 57.667 227.034 57.08 227.802 L 57.08 227.802 L 57.08 227.802 Q 56.492 228.57 56.266 228.864 L 56.266 228.864 L 56.266 228.864 Q 56.04 229.158 55.159 229.678 L 55.159 229.678 L 55.159 229.678 Q 54.278 230.197 53.261 230.197 L 53.261 230.197 L 53.261 230.197 Q 52.244 230.197 51.408 229.723 L 51.408 229.723 L 51.408 229.723 Q 50.572 229.248 50.21 228.796 L 50.21 228.796 L 49.849 228.299 L 49.849 228.299 Q 48.945 227.169 46.278 223.486 L 46.278 223.486 L 46.278 223.486 Q 43.612 219.803 43.386 219.531 L 43.386 219.531 L 43.386 234.762 L 43.386 234.762 Q 43.386 235.801 43.318 236.321 L 43.318 236.321 L 43.318 236.321 Q 43.25 236.841 42.889 237.474 L 42.889 237.474 L 42.889 237.474 Q 42.211 238.694 39.364 238.694 L 39.364 238.694 L 39.364 238.694 Q 36.607 238.694 35.929 237.474 L 35.929 237.474 L 35.929 237.474 Q 35.567 236.841 35.499 236.298 L 35.499 236.298 L 35.499 236.298 Q 35.432 235.756 35.432 234.671 L 35.432 234.671 L 35.432 209.589 L 35.432 209.589 Q 35.432 208.549 35.499 208.029 L 35.499 208.029 L 35.499 208.029 Q 35.567 207.51 35.929 206.832 L 35.929 206.832 L 35.929 206.832 Q 36.607 205.657 39.454 205.657 L 39.454 205.657 L 39.454 205.657 Q 40.674 205.657 41.556 205.951 L 41.556 205.951 L 41.556 205.951 Q 42.437 206.244 42.708 206.561 L 42.708 206.561 L 42.979 206.832 L 53.238 220.3 L 53.238 220.3 Q 60.921 210.131 63.497 206.877 L 63.497 206.877 L 63.497 206.877 Q 64.266 205.657 67.135 205.657 L 67.135 205.657 L 67.135 205.657 Q 70.005 205.657 70.638 206.877 Z  M 74.751 234.717 L 74.751 209.589 L 74.751 209.589 Q 74.751 208.549 74.818 208.029 L 74.818 208.029 L 74.818 208.029 Q 74.886 207.51 75.248 206.832 L 75.248 206.832 L 75.248 206.832 Q 75.88 205.612 78.773 205.612 L 78.773 205.612 L 78.773 205.612 Q 81.937 205.612 82.524 207.284 L 82.524 207.284 L 82.524 207.284 Q 82.75 208.052 82.75 209.634 L 82.75 209.634 L 82.75 234.762 L 82.75 234.762 Q 82.75 235.847 82.682 236.344 L 82.682 236.344 L 82.682 236.344 Q 82.614 236.841 82.253 237.519 L 82.253 237.519 L 82.253 237.519 Q 81.62 238.739 78.728 238.739 L 78.728 238.739 L 78.728 238.739 Q 75.564 238.739 75.022 237.022 L 75.022 237.022 L 75.022 237.022 Q 74.751 236.298 74.751 234.717 L 74.751 234.717 L 74.751 234.717 Z " fill="rgb(126,213,90)"/></g></g></svg>